<svg width="180" height="26" viewBox="0 0 180 26" fill="none" xmlns="http://www.w3.org/2000/svg">
<path d="M-6.53267e-05 5.77344L5.77344 11.5469L11.5469 5.77344L5.77344 -6.53267e-05L-6.53267e-05 5.77344ZM179.547 19.7734L173.773 13.9999L168 19.7734L173.773 25.5469L179.547 19.7734ZM110.773 19.7734L110.457 20.7221L110.611 20.7734H110.773V19.7734ZM68.7734 5.77344L69.0897 4.82475L68.9357 4.77344H68.7734V5.77344ZM89.7734 12.7734L89.4572 13.7221L110.457 20.7221L110.773 19.7734L111.09 18.8248L90.0897 11.8248L89.7734 12.7734ZM110.773 19.7734V20.7734H173.773V19.7734V18.7734H110.773V19.7734ZM5.77344 5.77344V6.77344H68.7734V5.77344V4.77344H5.77344V5.77344ZM68.7734 5.77344L68.4572 6.72212L89.4572 13.7221L89.7734 12.7734L90.0897 11.8248L69.0897 4.82475L68.7734 5.77344Z" fill="#00CACA"/>
</svg>
