<svg width="30" height="30" viewBox="0 0 30 30" fill="none" xmlns="http://www.w3.org/2000/svg">
<path d="M16.875 23.25H12.375V17.25H10.125V12.75H12.375V11.25C12.375 10.656 12.4902 10.0767 12.7176 9.52785C12.945 8.979 13.2731 8.4879 13.6931 8.0679C14.1129 7.6479 14.6042 7.3197 15.1529 7.09245C15.7016 6.8652 16.281 6.74985 16.875 6.74985H19.875V11.2498H16.875V12.7498H20.0856L18.9606 17.2498H16.875V23.2498V23.25ZM13.875 21.75H15.375V15.75H17.7894L18.1644 14.25H15.375V11.25C15.375 10.8493 15.531 10.4727 15.8144 10.1893C16.0977 9.906 16.4744 9.75 16.875 9.75H18.375V8.25H16.875C16.0737 8.25 15.3203 8.562 14.7537 9.1287C14.187 9.6954 13.875 10.4487 13.875 11.25V14.25H11.625V15.75H13.875V21.75Z" fill="#EEEEEE"/>
<path d="M20.9999 0H5.99976L8.99976 3H11.1211L10.5752 2.45415L10.1359 2.0148L9.62106 1.5H20.3786L22.4092 3.53055L26.4694 7.5909L27.7279 8.8494L28.4999 9.62145V20.3789L26.9999 18.8789V21.0002L27.7277 21.728L29.9999 24.0002V9.00015L20.9999 0Z" fill="#EEEEEE"/>
<path d="M21.0002 27H18.8789L19.4247 27.5458L19.8641 27.9852L20.3789 28.5H9.6213L7.59075 26.4694L3.53055 22.4091L1.5 20.3785V9.62115L2.2722 10.3933L3 11.1211V8.99985L0 5.99985V20.9998L9 30H24.0002L21.0002 27Z" fill="#EEEEEE"/>
</svg>
