<svg width="128" height="80" viewBox="0 0 128 80" fill="none" xmlns="http://www.w3.org/2000/svg">
<path d="M102.267 34.1188L110.119 37.918L114.045 45.518V63.5037L110.119 71.1037L102.267 74.903H76.2995L72.5754 71.2989C71.5873 70.3425 70.2467 69.8054 68.8492 69.8054H59.156C57.7581 69.8054 56.418 70.3425 55.4298 71.2989L51.7057 74.903H25.7382L17.8865 71.1037L13.9602 63.5037V45.518L17.8865 37.918L25.7382 34.1188H102.267ZM103.511 29.0222H24.494L13.9591 34.1198L8.69165 44.3155V64.7068L13.9591 74.9025L24.494 80.0001H53.8886L59.156 74.9025H68.8492L74.1167 80.0001H103.511L114.046 74.9025L119.314 64.7068V44.3155L114.046 34.1198L103.511 29.0222Z" fill="#EEEEEE"/>
<path d="M65.5328 3.82318C67.9785 3.82318 71.8617 3.89452 76.4739 4.23541C81.8909 4.63541 86.9993 5.30701 91.6563 6.23134C97.4968 7.39057 102.584 8.94115 106.775 10.8397C111.539 12.9977 115.158 15.6122 117.533 18.611C117.977 19.1725 118.4 19.7457 118.801 20.3292C116.062 18.1763 112.778 16.3297 108.955 14.7969C98.7294 10.6966 84.0506 8.51159 64.0801 8.1172C64.0532 8.11669 64.0263 8.11618 63.9995 8.11618C63.9726 8.11618 63.9457 8.11618 63.9189 8.1172C43.9483 8.51159 29.2695 10.6966 19.0438 14.7969C15.2212 16.3297 11.9369 18.1768 9.19838 20.3297C9.59871 19.7457 10.0212 19.173 10.4663 18.6115C12.8403 15.6127 16.4596 12.9982 21.2235 10.8403C25.4158 8.94115 30.5026 7.39057 36.3432 6.23185C41.0007 5.30752 46.1091 4.63592 51.5261 4.23592C56.1388 3.89503 60.022 3.82369 62.4677 3.82369C62.9776 3.82369 63.4754 3.82675 63.9468 3.83287C63.9647 3.83287 63.9826 3.83287 64.0005 3.83287C64.0184 3.83287 64.0353 3.83287 64.0527 3.83287C64.5257 3.82675 65.0235 3.82369 65.5323 3.82369M65.5318 0C64.9429 0 64.4288 0.00407643 64 0.00968153C63.5707 0.00407643 63.0577 0 62.4682 0C52.2599 0 19.2735 1.20153 7.32896 16.2869C-6.35644 33.5715 2.73309 54.8031 5.87566 57.8431C5.91938 57.8854 5.97311 57.9282 6.03737 57.972V46.5345C4.0173 44.1819 2.73731 39.9975 3.48845 36.32C6.80168 20.0912 25.5228 12.6996 64 11.9399C102.477 12.6996 121.198 20.0912 124.512 36.32C125.262 39.9975 123.983 44.1819 121.963 46.5345V57.972C122.027 57.9282 122.081 57.8854 122.124 57.8431C125.267 54.8026 134.356 33.5715 120.671 16.2869C108.726 1.20051 75.738 0 65.5318 0Z" fill="#EEEEEE"/>
<path d="M85.0725 22.6573H42.9275L32.3926 26.479H95.6074L85.0725 22.6573Z" fill="#EEEEEE"/>
<path d="M85.6002 43.2942L82.6288 51.1923H96.851L94.3584 57.8165H80.1363L77.1649 65.7146H91.387L88.8945 72.3388H77.3898L77.325 72.2762L74.4364 69.4823C73.6536 68.7251 72.735 68.1462 71.7341 67.7666C71.0936 67.5241 70.4194 67.363 69.7246 67.2897L70.3172 65.7146L81.2451 36.67H101.646L102.212 36.9437L99.8224 43.2942H85.6002Z" fill="#EEEEEE"/>
<path d="M100.078 65.7147H109.033L107.629 69.4451L101.647 72.3389H90.7382L93.2307 65.7147L103.772 37.6984L108.157 39.8196L109.121 41.6831L100.078 65.7147Z" fill="#EEEEEE"/>
<path d="M58.2758 67.2902C57.6268 67.359 56.9958 67.5047 56.3937 67.7218C55.3455 68.0993 54.3842 68.694 53.5693 69.4823L50.7833 72.1768L50.6158 72.3388H39.1054L36.6128 65.7146L25.7887 36.9462L26.3592 36.67H46.7548L49.2473 43.2942H35.0252L37.9966 51.1923H52.2187L54.7113 57.8165H40.4891L43.4605 65.7146H57.6827L58.2758 67.2902Z" fill="#EEEEEE"/>
<path d="M37.2618 72.3388H26.3592L20.3695 69.442L16.5928 59.4043V46.1177L17.6626 44.0479L25.8145 65.7146H34.7692L37.2618 72.3388Z" fill="#EEEEEE"/>
<path d="M79.4015 36.67L68.4736 65.7146L67.8984 67.2433H60.1015L59.5263 65.7146L48.5984 36.67H55.4461L63.9999 59.4043L72.5538 36.67H79.4015Z" fill="#EEEEEE"/>
</svg>
