<svg width="54" height="54" viewBox="0 0 54 54" fill="none" xmlns="http://www.w3.org/2000/svg">
<path d="M37.7998 0H10.7996L16.1996 5.4H20.0179L19.0354 4.41747L18.2445 3.62664L17.3179 2.7H36.6815L40.3365 6.35499L47.6448 13.6636L49.9101 15.9289L51.2998 17.3186V36.6819L48.5998 33.9819V37.8003L49.9099 39.1103L53.9998 43.2003V16.2003L37.7998 0Z" fill="#EEEEEE"/>
<path d="M37.8003 48.6001H33.9819L34.9645 49.5826L35.7553 50.3734L36.6819 51.3001H17.3183L13.6634 47.6451L6.35499 40.3365L2.7 36.6815V17.3181L4.08996 18.7081L5.4 20.0181V16.1998L0 10.7998V37.7998L16.2 54.0001H43.2003L37.8003 48.6001Z" fill="#EEEEEE"/>
<path d="M19.4092 26.7092V36.0051H15.7725C15.0702 36.005 14.5 35.4358 14.5 34.7317V23.0276L19.4092 26.7092Z" stroke="#EEEEEE"/>
<path d="M39.5 34.7317C39.5 35.4339 38.9316 36.0049 38.2275 36.0051H34.5908V26.6477L39.5 23.0188V34.7317Z" stroke="#EEEEEE"/>
<path d="M36.0459 17.9365C37.4684 16.8695 39.5 17.8841 39.5 19.6641V21.7773L34.5908 25.459V19.0205L36.0439 17.9375L36.0459 17.9365Z" stroke="#EEEEEE"/>
<path d="M33.5908 26.2092L27 31.1516L20.4092 26.1965V19.7776L26.7002 24.4954L27 24.7209L27.2998 24.4954L33.5908 19.7776V26.2092Z" stroke="#EEEEEE"/>
<path d="M14.5 19.6641C14.5 17.8844 16.5285 16.8693 17.9541 17.9365L19.4092 19.0273V25.459L14.5 21.7773V19.6641Z" stroke="#EEEEEE"/>
</svg>
