<svg width="54" height="54" viewBox="0 0 54 54" fill="none" xmlns="http://www.w3.org/2000/svg">
<path d="M37.7998 0H10.7996L16.1996 5.4H20.0179L19.0354 4.41747L18.2445 3.62664L17.3179 2.7H36.6815L40.3365 6.35499L47.6448 13.6636L49.9101 15.9289L51.2998 17.3186V36.6819L48.5998 33.9819V37.8003L49.9099 39.1103L53.9998 43.2003V16.2003L37.7998 0Z" fill="#EEEEEE"/>
<path d="M37.8003 48.6001H33.9819L34.9645 49.5826L35.7553 50.3734L36.6819 51.3001H17.3183L13.6634 47.6451L6.35499 40.3365L2.7 36.6815V17.3181L4.08996 18.7081L5.4 20.0181V16.1998L0 10.7998V37.7998L16.2 54.0001H43.2003L37.8003 48.6001Z" fill="#EEEEEE"/>
<path d="M22.0011 27.4924C22.0011 25.0086 24.0153 22.9946 26.5005 22.9946C28.9858 22.9946 31.0011 25.0086 31.0011 27.4924C31.0011 29.9762 28.9858 31.9903 26.5005 31.9903C24.0153 31.9903 22.0011 29.9762 22.0011 27.4924ZM19.5682 27.4924C19.5682 31.3189 22.6718 34.4207 26.5005 34.4207C30.3293 34.4207 33.4329 31.3189 33.4329 27.4924C33.4329 23.666 30.3293 20.5642 26.5005 20.5642C22.6718 20.5642 19.5682 23.666 19.5682 27.4924ZM32.0873 20.2895C32.0872 20.6098 32.182 20.9228 32.36 21.1892C32.5379 21.4555 32.7908 21.6631 33.0868 21.7858C33.3828 21.9084 33.7085 21.9406 34.0228 21.8783C34.3371 21.8159 34.6258 21.6619 34.8524 21.4355C35.0791 21.2092 35.2335 20.9207 35.2962 20.6067C35.3588 20.2926 35.3268 19.9671 35.2043 19.6712C35.0818 19.3753 34.8743 19.1223 34.6079 18.9443C34.3416 18.7663 34.0284 18.6712 33.708 18.6711H33.7073C33.2779 18.6713 32.866 18.8418 32.5622 19.1453C32.2585 19.4488 32.0877 19.8603 32.0873 20.2895V20.2895ZM21.0463 38.475C19.7301 38.4151 19.0147 38.1959 18.5392 38.0108C17.9089 37.7656 17.4592 37.4735 16.9863 37.0016C16.5135 36.5297 16.2208 36.0807 15.9765 35.4507C15.7912 34.9758 15.5719 34.2606 15.5121 32.9451C15.4466 31.5229 15.4336 31.0957 15.4336 27.4926C15.4336 23.8894 15.4477 23.4634 15.5121 22.04C15.572 20.7245 15.7929 20.0107 15.9765 19.5344C16.2219 18.9044 16.5141 18.455 16.9863 17.9824C17.4585 17.5099 17.9078 17.2174 18.5392 16.9732C19.0144 16.788 19.7301 16.5689 21.0463 16.5091C22.4694 16.4436 22.8969 16.4306 26.5005 16.4306C30.1042 16.4306 30.5321 16.4447 31.9564 16.5091C33.2726 16.569 33.9869 16.7897 34.4635 16.9732C35.0938 17.2174 35.5435 17.5105 36.0164 17.9824C36.4892 18.4543 36.7808 18.9044 37.0262 19.5344C37.2115 20.0093 37.4308 20.7245 37.4906 22.04C37.5561 23.4634 37.5691 23.8894 37.5691 27.4926C37.5691 31.0957 37.5561 31.5217 37.4906 32.9451C37.4307 34.2606 37.2104 34.9756 37.0262 35.4507C36.7808 36.0807 36.4886 36.5301 36.0164 37.0016C35.5442 37.4731 35.0938 37.7656 34.4635 38.0108C33.9883 38.1961 33.2726 38.4152 31.9564 38.475C30.5333 38.5404 30.1058 38.5534 26.5005 38.5534C22.8952 38.5534 22.469 38.5404 21.0463 38.475V38.475ZM20.9345 14.0817C19.4973 14.1471 18.5152 14.3749 17.6576 14.7084C16.7694 15.0528 16.0174 15.5149 15.266 16.2647C14.5147 17.0144 14.0535 17.7671 13.7088 18.6548C13.3751 19.5125 13.1472 20.4934 13.0818 21.9298C13.0152 23.3684 13 23.8283 13 27.4924C13 31.1566 13.0152 31.6165 13.0818 33.0551C13.1472 34.4916 13.3751 35.4724 13.7088 36.3301C14.0535 37.2173 14.5148 37.9708 15.266 38.7202C16.0173 39.4696 16.7694 39.9311 17.6576 40.2765C18.5169 40.61 19.4973 40.8378 20.9345 40.9032C22.3748 40.9686 22.8342 40.9849 26.5005 40.9849C30.1669 40.9849 30.6271 40.9697 32.0665 40.9032C33.5039 40.8378 34.4853 40.61 35.3435 40.2765C36.2312 39.9311 36.9837 39.47 37.735 38.7202C38.4864 37.9705 38.9466 37.2173 39.2922 36.3301C39.626 35.4724 39.855 34.4915 39.9193 33.0551C39.9848 31.6154 40 31.1566 40 27.4924C40 23.8283 39.9848 23.3684 39.9193 21.9298C39.8539 20.4933 39.626 19.5119 39.2922 18.6548C38.9466 17.7676 38.4852 17.0156 37.735 16.2647C36.9848 15.5137 36.2312 15.0528 35.3446 14.7084C34.4853 14.3749 33.5038 14.146 32.0676 14.0817C30.6281 14.0163 30.1679 14 26.5016 14C22.8353 14 22.3748 14.0152 20.9345 14.0817Z" fill="#EEEEEE"/>
<path d="M22.0011 27.4924C22.0011 25.0086 24.0153 22.9946 26.5005 22.9946C28.9858 22.9946 31.0011 25.0086 31.0011 27.4924C31.0011 29.9762 28.9858 31.9903 26.5005 31.9903C24.0153 31.9903 22.0011 29.9762 22.0011 27.4924ZM19.5682 27.4924C19.5682 31.3189 22.6718 34.4207 26.5005 34.4207C30.3293 34.4207 33.4329 31.3189 33.4329 27.4924C33.4329 23.666 30.3293 20.5642 26.5005 20.5642C22.6718 20.5642 19.5682 23.666 19.5682 27.4924ZM32.0873 20.2895C32.0872 20.6098 32.182 20.9228 32.36 21.1892C32.5379 21.4555 32.7908 21.6631 33.0868 21.7858C33.3828 21.9084 33.7085 21.9406 34.0228 21.8783C34.3371 21.8159 34.6258 21.6619 34.8524 21.4355C35.0791 21.2092 35.2335 20.9207 35.2962 20.6067C35.3588 20.2926 35.3268 19.9671 35.2043 19.6712C35.0818 19.3753 34.8743 19.1223 34.6079 18.9443C34.3416 18.7663 34.0284 18.6712 33.708 18.6711H33.7073C33.2779 18.6713 32.866 18.8418 32.5622 19.1453C32.2585 19.4488 32.0877 19.8603 32.0873 20.2895V20.2895ZM21.0463 38.475C19.7301 38.4151 19.0147 38.1959 18.5392 38.0108C17.9089 37.7656 17.4592 37.4735 16.9863 37.0016C16.5135 36.5297 16.2208 36.0807 15.9765 35.4507C15.7912 34.9758 15.5719 34.2606 15.5121 32.9451C15.4466 31.5229 15.4336 31.0957 15.4336 27.4926C15.4336 23.8894 15.4477 23.4634 15.5121 22.04C15.572 20.7245 15.7929 20.0107 15.9765 19.5344C16.2219 18.9044 16.5141 18.455 16.9863 17.9824C17.4585 17.5099 17.9078 17.2174 18.5392 16.9732C19.0144 16.788 19.7301 16.5689 21.0463 16.5091C22.4694 16.4436 22.8969 16.4306 26.5005 16.4306C30.1042 16.4306 30.5321 16.4447 31.9564 16.5091C33.2726 16.569 33.9869 16.7897 34.4635 16.9732C35.0938 17.2174 35.5435 17.5105 36.0164 17.9824C36.4892 18.4543 36.7808 18.9044 37.0262 19.5344C37.2115 20.0093 37.4308 20.7245 37.4906 22.04C37.5561 23.4634 37.5691 23.8894 37.5691 27.4926C37.5691 31.0957 37.5561 31.5217 37.4906 32.9451C37.4307 34.2606 37.2104 34.9756 37.0262 35.4507C36.7808 36.0807 36.4886 36.5301 36.0164 37.0016C35.5442 37.4731 35.0938 37.7656 34.4635 38.0108C33.9883 38.1961 33.2726 38.4152 31.9564 38.475C30.5333 38.5404 30.1058 38.5534 26.5005 38.5534C22.8952 38.5534 22.469 38.5404 21.0463 38.475V38.475ZM20.9345 14.0817C19.4973 14.1471 18.5152 14.3749 17.6576 14.7084C16.7694 15.0528 16.0174 15.5149 15.266 16.2647C14.5147 17.0144 14.0535 17.7671 13.7088 18.6548C13.3751 19.5125 13.1472 20.4934 13.0818 21.9298C13.0152 23.3684 13 23.8283 13 27.4924C13 31.1566 13.0152 31.6165 13.0818 33.0551C13.1472 34.4916 13.3751 35.4724 13.7088 36.3301C14.0535 37.2173 14.5148 37.9708 15.266 38.7202C16.0173 39.4696 16.7694 39.9311 17.6576 40.2765C18.5169 40.61 19.4973 40.8378 20.9345 40.9032C22.3748 40.9686 22.8342 40.9849 26.5005 40.9849C30.1669 40.9849 30.6271 40.9697 32.0665 40.9032C33.5039 40.8378 34.4853 40.61 35.3435 40.2765C36.2312 39.9311 36.9837 39.47 37.735 38.7202C38.4864 37.9705 38.9466 37.2173 39.2922 36.3301C39.626 35.4724 39.855 34.4915 39.9193 33.0551C39.9848 31.6154 40 31.1566 40 27.4924C40 23.8283 39.9848 23.3684 39.9193 21.9298C39.8539 20.4933 39.626 19.5119 39.2922 18.6548C38.9466 17.7676 38.4852 17.0156 37.735 16.2647C36.9848 15.5137 36.2312 15.0528 35.3446 14.7084C34.4853 14.3749 33.5038 14.146 32.0676 14.0817C30.6281 14.0163 30.1679 14 26.5016 14C22.8353 14 22.3748 14.0152 20.9345 14.0817Z" fill="#EEEEEE"/>
</svg>
